# xmcd
#
# Track frame offsets: 
#        150
#        12632
#        24200
#        37840
#        49877
#        63812
#        78945
#        91395
#        102545
#        116357
#        126500
#        137252
#        149740
#        159585
#        170642
#        180630
#        194125
#        206315
#        217082
#        231475
#        242857
#        257317
#        268995
#        282610
#        293572
#        305440
#        317817
#        329012
#        343117
#
# Disc length: 4739 seconds
#
# Revision: 3
# Processed by: cddbd v1.5.2PL0 Copyright (c) Steve Scherf et al.
# Submitted via: ExactAudioCopyFreeDBPlugin 1.0
#
DISCID=c112811d
DTITLE=Various Artist - Blowing the Fuse:  459 R&B Classics, 1945-196
DTITLE=0 [Bear Family]
DYEAR=1952
DGENRE=Rhythm and Blues
TTITLE0=Joe Turner - The Chill is On
TTITLE1=The Swallows - It Ain't the Meat
TTITLE2=B.B. King - 3 O'Clock Blues
TTITLE3=John Greer and His Rhythm Rockers - Got You on My Mind
TTITLE4=Rosco Gordon - Booted
TTITLE5=The Griffin Brothers' Orchestra - Weepin' and Cryin'
TTITLE6=Elmore James - Dust My Broom
TTITLE7=Wynonie Harris - Lovin' Machine
TTITLE8=Charles Brown and His Band - Hard Times
TTITLE9=Dinah Washington - Wheel of Fortune
TTITLE10=The Orioles - Baby, Please Don't Go
TTITLE11=Tiny Badshaw - The Train Kept A-Rollin'
TTITLE12=Fats Domino - Goin' Home
TTITLE13=The Clovers - One Mint Julep
TTITLE14=Lester Williams - I Can't Lose with the Stuff I Use
TTITLE15=Jimmy Forrest - Night Train
TTITLE16=Marie Adams - I'm Gonna Play the Honky Tonks
TTITLE17=The Dominoes - Have Mercy Baby
TTITLE18=Roy Milton - So Tired
TTITLE19=Lloyd Price and His Orchestra - Lawdy Miss Clawdy
TTITLE20=Ruth Brown - 5-10-15 Hours
TTITLE21=The Four Blazes - Mary Jo
TTITLE22=Johnny Ace - My Song
TTITLE23=Smiley Lewis - The Bells are Ringing
TTITLE24=Varetta Dillard - Easy, Easy Baby
TTITLE25=Little Walter - Juke
TTITLE26=Little Caesar - Goodbye Baby
TTITLE27=Willie Mabon and His Combo - I Don't Know
TTITLE28=The Ravens - Rock Me All Night Long
EXTD=
EXTT0=Blues
EXTT1=Blues
EXTT2=Blues
EXTT3=Blues
EXTT4=Blues
EXTT5=Blues
EXTT6=Blues
EXTT7=Blues
EXTT8=Blues
EXTT9=Blues
EXTT10=Blues
EXTT11=Blues
EXTT12=Blues
EXTT13=Blues
EXTT14=Blues
EXTT15=BluesBlues
EXTT16=Blues
EXTT17=Blues
EXTT18=Blues
EXTT19=Blues
EXTT20=Blues
EXTT21=Blues
EXTT22=Blues
EXTT23=Blues
EXTT24=Blues
EXTT25=Blues
EXTT26=Blues
EXTT27=Blues
EXTT28=Blues
PLAYORDER=
